# xmcd
#
# Track frame offsets:
#	150
#	16282
#	32030
#	47857
#	65495
#	81085
#	96075
#	111680
#	129152
#	146102
#	159080
#	174392
#	192302
#	205210
#
# Disc length: 2749 seconds
#
# Revision: 1
# Processed by: cddbd v1.5.2PL0 Copyright (c) Steve Scherf et al.
# Submitted via: audiograbber 1.83.01
#
DISCID=bf0abb0e
DTITLE=Bluegrass Breakdown - When The Morning Comes
DYEAR=1996
DGENRE=Bluegrass
TTITLE0=Why Bother
TTITLE1=After All Your Running Around
TTITLE2=My Soul Is Burning
TTITLE3=Dreamin'
TTITLE4=Running Out Of Time
TTITLE5=Wheelchair Dancer
TTITLE6=Cloudy Day
TTITLE7=Losing Sleep
TTITLE8=I Wanna Know
TTITLE9=Itchy Fingers
TTITLE10=Playin'  With Fire
TTITLE11=When The Morning Comes
TTITLE12=Get My Heart Straightend Out
TTITLE13=Hee Haw
EXTD=
EXTT0=
EXTT1=
EXTT2=
EXTT3=
EXTT4=
EXTT5=
EXTT6=
EXTT7=
EXTT8=
EXTT9=
EXTT10=
EXTT11=
EXTT12=
EXTT13=
PLAYORDER=
